<svg width="29" height="28" viewBox="0 0 29 28" fill="none" xmlns="http://www.w3.org/2000/svg">
<path d="M17.3481 6.60181C17.591 7.63103 18.5152 8.39775 19.6188 8.39775C20.9072 8.39775 21.9517 7.35322 21.9517 6.06478C21.9517 4.77634 20.9072 3.73181 19.6188 3.73181C18.4922 3.73181 17.5527 4.53025 17.3339 5.59228C15.4472 5.79462 13.9739 7.39478 13.9739 9.334C13.9739 9.33837 13.9739 9.34166 13.9739 9.34603C11.9221 9.43244 10.0485 10.0165 8.56096 10.9385C8.00861 10.5109 7.31518 10.256 6.56268 10.256C4.75689 10.256 3.29346 11.7195 3.29346 13.5253C3.29346 14.8356 4.06346 15.9643 5.1758 16.486C5.28408 20.2813 9.41955 23.334 14.5066 23.334C19.5936 23.334 23.7346 20.2781 23.8374 16.4795C24.941 15.9545 25.7044 14.829 25.7044 13.5263C25.7044 11.7206 24.241 10.2571 22.4352 10.2571C21.686 10.2571 20.9958 10.5098 20.4446 10.9342C18.9439 10.0056 17.0496 9.4215 14.9769 9.34384C14.9769 9.34056 14.9769 9.33837 14.9769 9.33509C14.9769 7.94603 16.0094 6.79322 17.3481 6.604V6.60181ZM8.42971 15.6001C8.4844 14.4145 9.2719 13.5045 10.1874 13.5045C11.1028 13.5045 11.8028 14.4659 11.7481 15.6515C11.6935 16.8371 11.0099 17.2681 10.0933 17.2681C9.17674 17.2681 8.37502 16.7857 8.42971 15.6001ZM18.8269 13.5045C19.7435 13.5045 20.531 14.4145 20.5846 15.6001C20.6392 16.7857 19.8364 17.2681 18.921 17.2681C18.0055 17.2681 17.3208 16.8382 17.2661 15.6515C17.2114 14.4659 17.9103 13.5045 18.8269 13.5045ZM17.7375 18.3432C17.9092 18.3607 18.0186 18.539 17.9519 18.6987C17.3886 20.0451 16.0586 20.9912 14.5066 20.9912C12.9546 20.9912 11.6256 20.0451 11.0613 18.6987C10.9946 18.539 11.1039 18.3607 11.2756 18.3432C12.2819 18.2415 13.3702 18.1857 14.5066 18.1857C15.643 18.1857 16.7302 18.2415 17.7375 18.3432Z" fill="#130C0E"/>
</svg>
